<svg xmlns="http://www.w3.org/2000/svg" version="1.0" width="1280.000000pt" height="850.000000pt" viewBox="0 0 1280.000000 850.000000" preserveAspectRatio="xMidYMid meet">

<g transform="translate(0.000000,850.000000) scale(0.100000,-0.100000)" fill="#f0ecc1" stroke="none">
<path d="M7534 8476 c-169 -63 -281 -172 -369 -359 -37 -78 -85 -234 -85 -275 0 -30 4 -26 -305 -283 -410 -340 -782 -678 -1140 -1033 -232 -230 -302 -311 -513 -586 -218 -286 -282 -361 -442 -521 -171 -171 -234 -221 -578 -452 -265 -178 -368 -254 -544 -401 -461 -387 -1479 -1467 -2729 -2896 -320 -366 -824 -950 -824 -955 0 -2 105 -164 234 -360 l235 -356 60 5 c34 3 126 8 206 11 1009 40 3906 255 6265 466 1200 107 2839 281 4685 499 l675 80 68 72 c79 83 182 235 290 428 l75 135 -28 150 c-122 643 -346 1375 -595 1941 -91 205 -134 281 -360 634 -156 242 -224 364 -317 563 -268 576 -393 743 -1042 1393 -338 337 -496 484 -776 719 -511 428 -1194 897 -1881 1290 -110 63 -201 115 -202 114 -1 0 -30 -10 -63 -23z m471 -327 c160 -113 509 -359 776 -546 929 -650 1200 -862 1529 -1200 180 -184 336 -372 506 -613 251 -354 339 -496 529 -860 255 -489 271 -517 520 -885 197 -292 276 -423 360 -597 141 -291 271 -710 355 -1143 31 -160 70 -395 70 -426 0 -14 -21 -8 -117 30 -220 89 -381 125 -524 119 -184 -9 -291 -90 -334 -254 -8 -32 -15 -74 -15 -93 0 -20 -4 -31 -8 -25 -17 18 -140 382 -181 534 -87 320 -103 425 -89 605 21 282 -15 350 -333 620 -199 171 -310 299 -340 394 -37 120 -50 203 -69 451 -29 361 -48 465 -113 600 -63 134 -158 221 -454 416 -283 188 -324 226 -615 574 -233 280 -469 534 -668 718 -212 198 -283 253 -835 654 -88 64 -293 215 -455 335 -337 250 -314 220 -281 373 24 110 83 237 139 300 70 80 192 131 307 127 48 -1 60 -9 340 -208z m-530 -695 c245 -218 387 -331 695 -554 639 -463 742 -560 1220 -1140 307 -374 361 -427 630 -618 194 -138 339 -275 387 -367 65 -126 83 -209 113 -525 48 -517 84 -593 415 -885 211 -186 261 -245 306 -364 28 -76 36 -123 49 -297 16 -209 61 -410 215 -955 36 -127 64 -233 62 -235 -13 -13 -932 -133 -1402 -183 -1207 -129 -3232 -243 -3920 -221 -335 11 -495 21 -495 32 0 4 4 8 9 8 5 0 45 26 88 58 162 120 227 212 246 348 l10 72 57 -77 c99 -130 262 -276 432 -385 31 -20 61 -36 67 -36 14 0 136 168 187 256 139 245 147 433 26 611 -6 10 -20 8 -62 -8 -102 -39 -259 -71 -349 -71 -98 -1 -160 18 -204 60 -57 54 -58 52 65 175 255 252 280 379 102 513 -188 140 -420 187 -566 113 -162 -81 -426 -395 -611 -724 -149 -266 -164 -408 -60 -584 45 -76 171 -209 262 -275 l64 -47 -44 8 c-24 4 -210 8 -414 8 -469 0 -552 -8 -1485 -140 -693 -98 -802 -110 -1290 -145 -557 -38 -1116 -63 -1776 -76 l-331 -7 266 269 c411 416 786 824 1076 1174 338 407 668 800 707 844 l43 49 40 -20 c65 -33 203 -73 305 -89 175 -26 367 -14 658 41 448 84 720 213 805 380 63 125 89 271 89 505 0 375 -53 580 -183 716 -34 35 -60 65 -58 67 2 1 29 23 59 48 89 74 233 170 414 274 93 54 205 125 249 158 l80 59 -8 -33 c-21 -96 -24 -119 -25 -181 0 -58 3 -71 27 -100 50 -60 102 -93 228 -145 105 -42 189 -47 273 -15 29 11 52 17 50 14 -2 -4 -22 -45 -45 -92 -57 -116 -123 -365 -123 -461 0 -25 -9 -33 -88 -73 -257 -133 -509 -335 -646 -517 -157 -209 -208 -369 -208 -659 0 -247 43 -486 109 -600 124 -214 605 -466 817 -426 47 9 101 57 131 116 47 92 57 152 62 377 l5 213 -104 -104 c-166 -164 -290 -212 -420 -163 -115 44 -181 195 -181 412 1 141 24 229 102 389 92 188 264 433 486 692 l35 41 -15 108 c-9 59 -13 110 -11 112 2 3 38 -1 80 -7 41 -6 114 -11 161 -11 47 -1 85 -3 85 -6 0 -2 -11 -23 -24 -46 -40 -68 -86 -193 -118 -317 -36 -142 -41 -290 -14 -385 36 -124 75 -180 245 -349 l158 -158 21 69 c27 88 77 154 139 184 42 21 62 24 158 24 126 -1 187 -18 372 -105 l104 -49 -8 47 c-23 135 5 250 81 325 133 133 426 148 789 40 48 -14 90 -24 93 -20 14 13 25 170 19 262 -28 439 -231 680 -704 835 -180 59 -267 74 -421 74 -191 1 -360 -39 -525 -122 l-69 -34 -51 54 c-98 105 -155 213 -155 293 0 57 28 118 49 109 9 -4 68 -25 131 -47 147 -52 262 -62 328 -28 72 37 97 123 90 302 -6 128 -27 200 -82 272 -97 128 -589 256 -945 246 -78 -3 -117 -1 -113 6 38 62 658 842 722 909 209 217 699 640 1204 1040 l200 157 105 -104 c58 -57 147 -139 196 -183z m-1955 -1904 c210 -40 334 -76 427 -124 96 -50 177 -121 201 -176 22 -51 28 -253 9 -305 l-14 -40 -79 3 c-170 6 -299 37 -360 84 l-27 22 -28 -33 c-42 -51 -86 -141 -94 -191 -12 -80 42 -195 156 -337 l58 -71 -47 -20 c-129 -54 -303 -63 -460 -23 -51 13 -94 27 -97 31 -7 11 151 493 181 551 l23 46 -67 -24 c-134 -49 -341 -40 -421 18 -22 16 -48 40 -57 54 -29 45 -54 136 -54 199 0 54 5 70 41 131 77 132 137 187 242 221 63 21 320 12 467 -16z m-764 -477 c22 -77 94 -151 177 -182 74 -27 185 -28 287 -1 41 10 75 18 77 17 1 -2 0 -12 -3 -24 -6 -23 -93 -66 -156 -77 -85 -15 -276 52 -361 126 -44 38 -60 89 -51 156 4 23 8 42 10 42 2 0 11 -26 20 -57z m959 -123 c75 -51 153 -70 298 -72 104 -1 112 -9 43 -42 -45 -21 -127 -20 -218 3 -60 15 -167 59 -186 76 -4 4 21 55 27 55 3 0 20 -9 36 -20z m-1835 -327 c148 -98 205 -292 204 -688 -1 -288 -29 -380 -152 -497 -211 -202 -605 -331 -1082 -354 -177 -9 -334 19 -428 76 l-33 20 48 63 c192 250 671 735 1278 1295 61 56 117 101 125 102 9 0 27 -7 40 -17z m2698 -154 c157 -29 391 -126 536 -223 85 -57 178 -144 222 -210 80 -117 124 -271 124 -429 l0 -95 -87 45 c-125 62 -202 76 -388 69 -243 -8 -366 -45 -457 -136 -69 -69 -91 -132 -92 -257 0 -46 -1 -83 -2 -83 -1 0 -26 16 -55 36 -270 182 -482 158 -641 -72 l-51 -73 -100 137 c-54 75 -108 157 -119 182 -58 132 -60 290 -8 474 38 134 61 192 113 276 34 57 48 70 103 99 37 19 83 54 108 82 77 85 271 156 531 193 42 6 195 -3 263 -15z m-788 -128 c0 -31 -55 -78 -138 -118 -69 -33 -86 -37 -177 -41 -94 -4 -180 4 -293 28 l-48 11 9 60 c9 55 12 60 31 55 234 -68 391 -69 536 -6 80 34 80 34 80 11z m-665 -287 l18 -105 -55 -57 c-146 -150 -380 -476 -467 -650 -116 -231 -133 -415 -60 -634 48 -147 97 -200 213 -233 121 -35 232 -5 336 92 32 29 60 53 62 53 2 0 2 -22 -2 -49 -10 -83 -90 -186 -178 -231 -91 -48 -207 -6 -415 147 -103 77 -136 113 -198 219 -56 96 -80 158 -113 289 -54 213 -56 253 -21 391 71 281 254 509 575 717 80 51 268 157 281 157 3 0 14 -48 24 -106z m-867 -1314 c78 -220 256 -404 499 -517 174 -80 292 -43 389 123 l29 49 7 -65 c9 -76 -3 -174 -27 -219 -31 -61 -146 -88 -250 -60 -137 37 -368 181 -497 309 -126 125 -174 233 -198 445 -5 50 -9 110 -9 135 1 37 4 28 19 -50 10 -52 27 -120 38 -150z m1940 14 c107 -43 180 -82 222 -120 l39 -36 -26 -51 c-89 -177 -219 -341 -293 -371 l-40 -16 15 -37 c44 -106 145 -214 218 -235 23 -6 94 -11 157 -11 108 1 137 6 308 50 23 5 23 5 16 -63 -10 -100 -39 -206 -79 -290 -37 -77 -130 -206 -187 -261 l-34 -33 -190 183 c-105 100 -222 216 -260 259 l-69 76 -12 -89 c-25 -181 -137 -376 -248 -428 -59 -28 -169 -28 -257 -1 -105 32 -176 108 -249 265 -42 89 -51 202 -23 291 67 213 368 640 563 798 79 63 140 100 213 126 74 27 137 25 216 -6z m282 -288 c0 -99 -76 -213 -227 -342 l-66 -55 -18 31 c-25 41 -25 42 18 65 21 11 65 47 98 80 49 48 73 84 121 180 32 66 62 116 66 110 4 -5 8 -36 8 -69z m441 -631 c6 -33 9 -96 6 -141 -4 -67 -12 -98 -47 -177 -40 -93 -128 -235 -189 -306 l-29 -35 -56 39 c-31 21 -56 40 -56 43 0 2 29 38 64 81 173 208 229 351 236 611 0 2 13 -9 30 -25 22 -22 33 -46 41 -90z m5404 10 c100 -18 329 -100 363 -131 5 -4 -337 -555 -357 -575 -28 -29 -1267 -166 -3821 -423 -1340 -136 -1859 -179 -3885 -326 -231 -17 -719 -53 -1085 -80 -366 -27 -854 -63 -1085 -80 -231 -17 -750 -55 -1154 -86 -404 -30 -748 -54 -764 -52 -28 3 -39 21 -187 298 -87 162 -156 296 -155 298 2 2 92 -2 202 -9 242 -15 869 -7 1223 15 412 26 598 46 1370 146 908 118 1185 151 1635 192 213 20 931 17 1225 -5 473 -35 802 -34 1775 9 1349 58 2397 138 3275 250 264 33 673 90 715 99 15 3 30 27 54 85 124 304 344 429 656 375z m-6280 -165 c25 -28 18 -168 -13 -230 -47 -98 -178 -223 -286 -274 -75 -36 -127 -34 -196 6 -61 36 -53 45 28 30 130 -23 280 66 359 215 33 60 73 196 73 245 0 33 10 35 35 8z" fill="#f0ecc1"/>
<path d="M7002 7009 c-159 -19 -394 -80 -564 -149 -183 -73 -204 -104 -194 -274 3 -61 13 -142 21 -181 9 -38 18 -82 21 -96 l6 -26 -129 -21 c-212 -36 -262 -42 -415 -50 -81 -4 -150 -11 -154 -15 -4 -4 12 -124 36 -268 l43 -262 146 7 c313 14 528 41 728 92 l102 26 63 -50 c248 -196 490 -261 928 -249 319 9 451 52 526 169 113 177 102 523 -23 737 -48 82 -240 278 -352 360 -299 219 -501 283 -789 250z m328 -45 c194 -45 490 -241 662 -439 147 -167 194 -308 185 -545 -7 -202 -58 -308 -173 -362 -120 -56 -375 -80 -624 -59 -285 24 -426 71 -604 202 l-69 51 89 37 c123 51 253 121 348 189 89 63 286 253 286 275 0 18 -59 309 -64 314 -2 2 -66 -21 -144 -51 -251 -98 -853 -288 -867 -274 -19 19 -55 242 -55 341 0 92 41 135 193 197 149 61 309 103 507 133 69 11 270 6 330 -9z m8 -443 c-6 -32 -639 -265 -913 -336 -165 -43 -419 -79 -701 -100 l-81 -6 -6 37 c-8 46 -3 54 33 54 44 0 486 57 630 81 69 11 161 30 205 40 79 20 500 162 705 238 96 36 106 38 118 23 7 -9 11 -23 10 -31z m20 -63 c6 -7 13 -44 17 -83 l7 -70 -78 -65 c-255 -212 -465 -336 -668 -395 -114 -32 -374 -81 -536 -100 -103 -12 -380 -21 -380 -12 0 1 -14 71 -30 156 -17 85 -30 156 -30 158 0 1 54 3 119 3 296 0 589 44 826 124 211 72 561 208 655 255 90 45 85 44 98 29z" fill="#f0ecc1"/>
<path d="M6797 5222 c-33 -36 -15 -116 58 -262 60 -121 140 -232 250 -348 288 -303 559 -473 820 -514 225 -35 820 64 1246 207 144 48 182 79 163 132 -19 54 -174 125 -349 158 -50 10 -192 19 -375 25 -339 11 -496 24 -630 50 -189 36 -324 102 -780 379 -296 181 -368 212 -403 173z m242 -276 c105 -109 233 -211 423 -337 311 -205 451 -243 893 -243 256 1 595 28 850 69 51 8 -90 -54 -217 -96 -125 -41 -233 -67 -508 -124 -223 -46 -406 -57 -526 -30 -324 71 -724 343 -906 616 -55 81 -148 263 -148 288 0 6 17 -8 37 -31 20 -24 66 -74 102 -112z m37 98 c152 -119 394 -261 557 -325 176 -70 405 -121 707 -158 189 -24 513 -51 602 -51 34 0 59 -2 56 -5 -12 -13 -309 -45 -503 -56 -366 -20 -554 5 -740 98 -220 111 -602 354 -697 444 -37 35 -58 63 -58 77 0 12 4 22 8 22 5 0 35 -21 68 -46z" fill="#f0ecc1"/>
<path d="M9000 3873 c-304 -30 -763 -170 -879 -268 -46 -39 -61 -81 -61 -167 1 -259 87 -546 217 -718 114 -152 291 -317 455 -424 207 -135 394 -186 769 -211 l97 -7 63 -81 c77 -97 208 -231 266 -271 158 -107 390 -80 662 76 179 103 216 155 209 292 -3 61 -15 111 -45 199 -65 185 -119 253 -252 316 -61 29 -63 30 -35 36 69 15 252 79 315 110 103 52 225 127 311 190 l78 56 -51 82 c-81 131 -139 207 -214 283 -134 136 -258 195 -409 193 -137 -2 -130 5 -138 -134 -7 -119 -35 -295 -47 -295 -3 1 -22 26 -41 57 -19 30 -75 98 -125 151 -263 278 -621 495 -880 532 -67 9 -189 11 -265 3z m380 -68 c330 -106 744 -438 880 -704 22 -44 22 -46 4 -79 -10 -18 -32 -46 -50 -61 -38 -34 -121 -68 -133 -55 -4 5 -20 43 -36 84 -77 206 -176 354 -267 401 -99 51 -226 2 -374 -145 -180 -179 -229 -336 -164 -526 39 -118 192 -404 287 -538 l15 -22 -68 0 c-92 0 -286 25 -392 50 -214 51 -459 215 -661 442 -187 210 -269 417 -287 728 -11 186 20 217 307 320 145 53 280 89 434 116 184 33 382 29 505 -11z m1266 -296 c128 -48 219 -124 340 -284 59 -78 124 -183 124 -199 0 -11 -118 -92 -124 -85 -2 2 -20 36 -39 75 -116 232 -304 413 -491 474 l-40 13 25 20 c20 16 34 18 85 14 33 -3 87 -16 120 -28z m-133 -85 c94 -47 148 -87 228 -171 70 -72 136 -167 188 -270 l31 -63 -37 -19 c-127 -64 -522 -244 -598 -272 l-90 -33 79 -39 c89 -45 202 -144 273 -242 100 -137 95 -267 -18 -418 -83 -112 -190 -152 -399 -151 -169 0 -205 17 -340 153 -198 200 -433 573 -512 810 -28 85 -32 109 -32 216 -1 108 1 124 23 164 33 62 194 216 260 248 l54 27 44 -50 c148 -165 243 -325 251 -419 l4 -55 39 0 c108 0 260 59 314 123 63 73 122 256 140 435 4 34 11 62 17 62 5 0 42 -16 81 -36z m-725 -91 c48 -23 105 -93 155 -191 47 -91 103 -239 95 -248 -3 -3 -21 -7 -41 -11 l-35 -5 -12 58 c-25 120 -93 234 -204 344 -36 36 -66 69 -66 74 0 11 67 -2 108 -21z m714 -759 c102 -52 176 -148 233 -304 35 -95 42 -248 12 -293 -17 -26 -104 -96 -119 -97 -4 0 10 28 30 62 37 62 37 63 37 173 0 98 -3 116 -26 166 -34 73 -136 181 -227 240 -39 26 -78 49 -85 52 -8 3 -6 10 8 21 25 20 71 14 137 -20z" fill="#f0ecc1"/>
<path d="M7043 3054 c-19 -51 48 -223 129 -325 23 -30 87 -106 143 -169 290 -332 326 -407 410 -835 55 -281 72 -348 97 -375 23 -24 45 -16 78 30 62 87 108 250 120 430 18 255 -17 476 -97 620 -68 121 -257 290 -518 465 -232 154 -344 204 -362 159z m151 -104 c178 -91 466 -299 570 -411 97 -105 157 -243 191 -437 19 -108 19 -288 0 -389 -14 -77 -74 -253 -85 -253 -3 0 -3 26 1 58 20 155 0 409 -46 610 -51 220 -269 479 -724 859 -18 14 28 -4 93 -37z m141 -250 c127 -113 300 -303 343 -378 43 -76 75 -183 117 -387 39 -197 56 -336 46 -384 -13 -67 -27 -42 -39 70 -44 396 -164 634 -579 1154 -57 71 -41 60 112 -75z" fill="#f0ecc1"/>
<path d="M2140 2632 l-65 -4 -105 -145 c-58 -80 -106 -150 -108 -154 -2 -5 79 -49 179 -99 386 -194 766 -424 1044 -635 161 -121 246 -195 402 -349 77 -76 126 -117 132 -111 35 38 371 472 371 481 0 18 -344 361 -455 453 -412 343 -826 532 -1220 559 -60 4 -139 6 -175 4z m227 -78 c400 -65 659 -173 953 -397 262 -200 399 -324 547 -495 l46 -52 -108 -143 c-60 -78 -112 -146 -116 -151 -5 -6 -27 12 -51 40 -207 239 -519 507 -761 650 -153 92 -783 403 -829 411 -57 9 -52 40 18 113 65 69 38 66 301 24z m-119 -286 c575 -294 736 -395 1052 -659 128 -106 360 -326 360 -341 0 -5 -12 -25 -26 -44 l-26 -34 -92 83 c-317 289 -665 563 -841 664 -109 62 -384 213 -555 303 -85 45 -159 85 -163 89 -14 14 11 61 33 61 12 0 128 -55 258 -122z" fill="#f0ecc1"/>
</g>
</svg>